<svg xmlns="http://www.w3.org/2000/svg" viewBox="0 0 239 223" width="220" height="205">
	<style>
		tspan { white-space:pre }
		.shp0 { fill: #ffffff } 
		.shp1 { fill: #263238 } 
		.shp2 { fill: #1976d2 } 
		.shp3 { fill: #42a5f5 } 
	</style>
	<g id="layer1">
		<g id="g4895-4-4">
			<path id="Loading... " fill="#000000" d="M79.06 180.3L79.06 194.49L83.92 194.49Q84.7 193.35 85.04 191.55Q85.22 191.48 85.48 191.48Q85.77 191.48 86.08 191.55L85.84 196L74.25 196L74.4 195.04Q75.94 194.86 76.74 194.34L76.74 180.3Q75.78 179.78 74.25 179.59Q74.27 179.28 74.38 178.66L81.58 178.66L81.45 179.59Q80.02 179.78 79.06 180.3ZM91.41 186.02Q90.68 187.19 90.68 189.89Q90.68 192.59 91.41 193.79Q92.16 194.99 93.85 194.99Q95.54 194.99 96.3 193.79Q97.08 192.59 97.08 189.89Q97.08 187.19 96.32 186.02Q95.57 184.82 93.85 184.82Q92.16 184.82 91.41 186.02ZM89.72 194.57Q88.34 192.96 88.34 189.89Q88.34 186.82 89.72 185.24Q91.12 183.62 93.85 183.62Q96.58 183.62 97.96 185.24Q99.36 186.82 99.36 189.89Q99.36 192.96 97.96 194.57Q96.58 196.18 93.85 196.18Q91.12 196.18 89.72 194.57ZM105.29 196.18Q103.68 196.18 102.8 195.4Q101.91 194.62 101.91 193.09Q101.91 191.53 103.16 190.57Q104.41 189.58 106.77 189.42L108.91 189.27L108.91 187.16Q108.91 185.86 108.36 185.26Q107.81 184.66 106.59 184.66Q104.43 184.66 104.43 185.83Q104.43 186.51 105.21 186.8Q105.21 188.04 103.73 188.04Q103.06 188.04 102.64 187.63Q102.22 187.21 102.22 186.54Q102.22 185.21 103.39 184.43Q104.59 183.62 106.64 183.62Q108.72 183.62 109.92 184.56Q111.12 185.5 111.12 187.16L111.12 194.41Q111.71 194.86 112.94 195.12L112.83 196L109.24 196L108.98 194.83Q107.53 196.18 105.29 196.18ZM104.2 192.98Q104.2 195.12 105.94 195.12Q107.32 195.12 108.91 193.61L108.91 190.33L106.83 190.51Q105.6 190.62 104.9 191.29Q104.2 191.94 104.2 192.98ZM119.64 196.18Q114.89 196.18 114.89 190.18Q114.89 186.98 116.39 185.31Q117.9 183.62 120.76 183.62Q121.88 183.62 122.97 184.07L122.97 181.26Q122.97 180.3 122.58 179.96Q122.19 179.59 121.18 179.54L121.23 178.79Q122.11 178.63 124.69 177.88L125.21 178.14L125.21 194.41Q125.81 194.88 127 195.12L126.92 196L123.18 196L122.97 194.47Q121.88 196.18 119.64 196.18ZM119.88 195.06Q122.97 195.06 122.97 190.18L122.97 185.24Q121.98 184.72 120.68 184.72Q119.02 184.72 118.08 186.15Q117.17 187.58 117.17 190.15Q117.17 192.7 117.82 193.89Q118.5 195.06 119.88 195.06ZM130.59 194.41L130.59 186.93Q130.59 185.96 130.17 185.63Q129.78 185.26 128.77 185.21L128.85 184.46Q129.84 184.27 132.28 183.55L132.8 183.83L132.8 194.41Q133.45 194.88 134.62 195.12L134.52 196L128.77 196L128.87 195.06Q129.94 194.88 130.59 194.41ZM131.55 178.94Q132.93 178.94 132.93 180.45Q132.93 181.96 131.55 181.96Q130.2 181.96 130.2 180.45Q130.2 178.94 131.55 178.94ZM145.07 194.39L145.07 187.45Q145.07 184.87 142.84 184.87Q141.95 184.87 141.15 185.5Q140.34 186.09 139.92 187.06L139.92 194.39Q140.55 194.88 141.74 195.12L141.64 196L135.89 196L136 195.06Q137.12 194.88 137.71 194.39L137.71 186.98Q137.71 186.02 137.3 185.68Q136.91 185.31 135.89 185.26L135.97 184.51Q136.31 184.46 139.14 183.62L139.61 183.86L139.85 185.47Q140.44 184.61 141.35 184.12Q142.29 183.62 143.28 183.62Q145.18 183.62 146.22 184.59Q147.28 185.52 147.28 187.21L147.28 194.39Q147.85 194.86 149.1 195.12L149 196L143.28 196L143.36 195.12Q144.34 194.96 145.07 194.39ZM155.89 183.65Q157.68 183.65 158.8 184.27Q159.74 183.99 159.74 183.34Q159.74 182.66 159.01 182.32Q159.01 181.93 159.32 181.7Q159.66 181.44 160.23 181.44Q160.8 181.44 161.17 181.8Q161.53 182.17 161.53 182.74Q161.53 184.38 159.71 185Q160.67 186.07 160.67 187.99Q160.67 189.92 159.37 191.06Q158.1 192.18 155.89 192.18L155.52 192.18L154.43 193.53Q154.48 193.92 154.82 194.08Q155.19 194.23 156.1 194.26L157.19 194.26Q159.58 194.26 160.7 195.35Q161.84 196.42 161.84 198.08Q161.84 201.69 156.33 201.69Q153.57 201.69 152.17 200.81Q150.79 199.93 150.79 198.52Q150.79 197.12 151.23 196.52Q151.68 195.9 152.79 195.27Q152.22 194.62 152.22 193.53L154.35 192.02Q152.82 191.66 151.96 190.62Q151.13 189.55 151.13 187.99Q151.13 183.65 155.89 183.65ZM154.04 190.36Q154.61 191.11 155.89 191.11Q157.16 191.11 157.73 190.36Q158.31 189.6 158.31 187.91Q158.31 186.22 157.73 185.47Q157.16 184.69 155.89 184.69Q154.61 184.69 154.04 185.47Q153.47 186.22 153.47 187.91Q153.47 189.6 154.04 190.36ZM156.56 196.03L154.35 196.03Q153.18 196.78 153.18 198.08Q153.18 200.63 156.3 200.63Q159.45 200.63 159.45 198.08Q159.45 196.03 156.56 196.03ZM163.74 194.67Q163.74 193.17 165.12 193.17Q166.5 193.17 166.5 194.67Q166.5 196.18 165.12 196.18Q163.74 196.18 163.74 194.67ZM169.07 194.67Q169.07 193.17 170.45 193.17Q171.83 193.17 171.83 194.67Q171.83 196.18 170.45 196.18Q169.07 196.18 169.07 194.67ZM174.4 194.67Q174.4 193.17 175.78 193.17Q177.16 193.17 177.16 194.67Q177.16 196.18 175.78 196.18Q174.4 196.18 174.4 194.67Z" />
			<g id="g5443-0-1-5-1-9">
				<g id="g8856-6-1-1-9-0-1-9">
					<path id="circle8858-1-3-7-6-5-3-0" class="shp0" d="M117.43 157.31C73.94 157.31 38.78 122.15 38.78 78.65C38.78 35.16 73.94 0 117.43 0C160.93 0 196.09 35.16 196.09 78.65C196.09 122.15 160.93 157.31 117.43 157.31Z" />
					<path id="path8860-5-4-8-2-9-0-9" class="shp1" d="M130.31 78.65C130.31 80.34 129.97 82.01 129.33 83.58C128.68 85.14 127.73 86.56 126.54 87.75C125.34 88.95 123.92 89.89 122.36 90.54C120.8 91.19 119.13 91.52 117.44 91.52C115.75 91.52 114.07 91.19 112.51 90.54C110.95 89.89 109.53 88.95 108.34 87.75C107.14 86.56 106.2 85.14 105.55 83.58C104.9 82.01 104.57 80.34 104.57 78.65C104.57 76.96 104.9 75.29 105.55 73.73C106.2 72.17 107.14 70.75 108.34 69.55C109.53 68.36 110.95 67.41 112.51 66.76C114.07 66.12 115.75 65.78 117.44 65.78C119.13 65.78 120.8 66.12 122.36 66.76C123.92 67.41 125.34 68.36 126.54 69.55C127.73 70.75 128.68 72.17 129.33 73.73C129.97 75.29 130.31 76.96 130.31 78.65L130.31 78.65Z" />
					<path id="path8862-5-5-9-1-3-6-3" class="shp2" d="M174.56 45.67C173.86 44.47 173.12 43.29 172.35 42.13C171.58 40.98 170.77 39.85 169.92 38.74C169.08 37.64 168.2 36.56 167.29 35.51C166.37 34.46 165.43 33.44 164.45 32.45L149.57 41.04C144.94 37.08 139.67 34.05 134.04 32.04C128.96 37.19 124.93 42.94 122.02 49.19C138.58 48.07 155.68 54.06 171.56 66.46L180.92 61.06C180.56 59.72 180.15 58.39 179.7 57.07C179.25 55.75 178.76 54.45 178.23 53.16C177.7 51.88 177.12 50.61 176.51 49.36C175.9 48.11 175.25 46.88 174.56 45.67L174.56 45.67Z" />
					<path id="path8864-4-8-1-2-4-4-4" class="shp3" d="M174.56 111.63C175.25 110.42 175.91 109.19 176.52 107.95C177.14 106.7 177.71 105.43 178.24 104.15C178.78 102.87 179.27 101.57 179.72 100.25C180.17 98.94 180.58 97.61 180.95 96.27L166.08 87.68C167.19 81.68 167.18 75.6 166.11 69.73C159.11 67.9 152.11 67.28 145.24 67.89C154.5 81.67 157.86 99.48 155.05 119.43L164.42 124.83C165.4 123.85 166.34 122.83 167.26 121.78C168.18 120.73 169.06 119.66 169.91 118.55C170.76 117.45 171.57 116.32 172.34 115.16C173.12 114.01 173.86 112.83 174.56 111.63L174.56 111.63Z" />
					<path id="path8866-7-5-5-0-6-4-7" class="shp2" d="M117.44 144.61C118.83 144.61 120.22 144.56 121.61 144.47C123 144.38 124.38 144.24 125.76 144.06C127.14 143.88 128.51 143.66 129.87 143.39C131.24 143.13 132.59 142.82 133.94 142.47L133.94 125.29C139.69 123.25 144.95 120.21 149.5 116.34C147.58 109.37 144.62 103 140.66 97.35C133.35 112.25 119.61 124.07 100.93 131.62L100.93 142.43C102.28 142.78 103.63 143.09 105 143.36C106.36 143.63 107.74 143.86 109.12 144.04C110.5 144.22 111.88 144.36 113.27 144.46C114.66 144.55 116.05 144.6 117.44 144.61L117.44 144.61Z" />
					<path id="path8868-6-7-4-7-2-7-3" class="shp3" d="M60.32 111.63C61.02 112.84 61.75 114.02 62.53 115.17C63.3 116.33 64.11 117.46 64.95 118.56C65.8 119.67 66.68 120.74 67.59 121.79C68.5 122.84 69.45 123.86 70.42 124.85L85.3 116.26C89.94 120.22 95.21 123.26 100.83 125.26C105.91 120.12 109.95 114.36 112.85 108.11C96.29 109.24 79.19 103.24 63.32 90.84L53.95 96.24C54.32 97.59 54.73 98.92 55.18 100.24C55.62 101.55 56.12 102.86 56.65 104.14C57.18 105.43 57.75 106.7 58.36 107.95C58.98 109.2 59.63 110.43 60.32 111.63L60.32 111.63Z" />
					<path id="path8870-5-3-9-3-5-5-1" class="shp2" d="M60.31 45.68C59.62 46.88 58.97 48.11 58.35 49.36C57.74 50.6 57.17 51.87 56.63 53.15C56.1 54.44 55.6 55.74 55.15 57.05C54.7 58.37 54.29 59.7 53.92 61.04L68.8 69.63C67.69 75.62 67.69 81.7 68.77 87.58C75.77 89.4 82.76 90.02 89.63 89.41C80.38 75.63 77.02 57.83 79.82 37.87L70.46 32.47C69.48 33.46 68.53 34.48 67.61 35.52C66.7 36.57 65.82 37.65 64.97 38.75C64.12 39.85 63.31 40.98 62.53 42.14C61.75 43.29 61.01 44.47 60.31 45.68L60.31 45.68Z" />
					<path id="path8872-6-3-2-1-3-3-7" class="shp3" d="M117.43 12.69C116.04 12.7 114.65 12.74 113.27 12.84C111.88 12.93 110.5 13.06 109.12 13.24C107.74 13.42 106.37 13.65 105 13.91C103.64 14.18 102.28 14.49 100.94 14.84L100.94 32.02C95.19 34.05 89.92 37.1 85.37 40.97C87.29 47.94 90.26 54.31 94.22 59.95C101.52 45.05 115.26 33.23 133.94 25.69L133.94 14.88C132.6 14.52 131.24 14.21 129.88 13.94C128.51 13.67 127.14 13.44 125.76 13.26C124.38 13.08 122.99 12.94 121.6 12.84C120.22 12.75 118.83 12.7 117.43 12.69L117.43 12.69Z" />
				</g>
			</g>
		</g>
	</g>
</svg>